<?xml version="1.0" encoding="UTF-8"?>
<svg id="Layer_1" data-name="Layer 1" xmlns="http://www.w3.org/2000/svg" viewBox="0 0 59.65 50.21">
  <defs>
    <style>
      .cls-1 {
        fill: #ff6363;
        stroke-width: 0px;
      }
    </style>
  </defs>
  <path class="cls-1" d="m20.12,50.21c-3.71,0-6.72-3.02-6.72-6.72s3.02-6.73,6.72-6.73,6.73,3.02,6.73,6.73-3.02,6.72-6.73,6.72Z"/>
  <path class="cls-1" d="m50.31,50.21c-3.71,0-6.73-3.02-6.73-6.72s3.02-6.73,6.73-6.73,6.72,3.02,6.72,6.73-3.02,6.72-6.72,6.72Z"/>
  <path class="cls-1" d="m50.31,44.52h-28.69c-.8,0-1.57-.39-2.04-1.04-.48-.66-.61-1.5-.37-2.27l3.85-9.47c.22-.53.82-.79,1.35-.57.53.22.78.82.57,1.35l-3.83,9.39c-.02.06,0,.22.09.34.09.12.22.19.37.19h28.69c.57,0,1.04.46,1.04,1.04s-.46,1.04-1.04,1.04Z"/>
  <path class="cls-1" d="m59.16,6.82c-.48-.65-1.24-1.03-2.04-1.03H13.9s-2.03-4.64-2.03-4.64c-.17-.38-.54-.62-.95-.62H1.32C.75.53.28.99.28,1.56s.46,1.04,1.04,1.04h8.92l12.67,29.04c.4.93,1.31,1.53,2.33,1.53h24.83c1.11,0,2.08-.71,2.42-1.77l7.04-22.32c.24-.77.1-1.61-.37-2.26Zm-11.2,20.35h-21.2c-.57,0-1.04-.46-1.04-1.04s.46-1.04,1.04-1.04h21.2c.57,0,1.04.46,1.04,1.04s-.46,1.04-1.04,1.04Zm1.81-6.55h-24.82c-.57,0-1.04-.46-1.04-1.04s.46-1.04,1.04-1.04h24.82c.57,0,1.04.46,1.04,1.04s-.46,1.04-1.04,1.04Zm1.48-6.55h-27.79c-.57,0-1.04-.46-1.04-1.04s.46-1.04,1.04-1.04h27.79c.57,0,1.04.46,1.04,1.04s-.46,1.04-1.04,1.04Z"/>
  <path class="cls-1" d="m3.27,1.64c0,.9-.73,1.63-1.64,1.63s-1.63-.73-1.63-1.63S.73,0,1.63,0s1.64.73,1.64,1.64Z"/>
</svg>